<svg xmlns="http://www.w3.org/2000/svg" width="176" height="64"><defs><clipPath id="a"><path fill="#fff" d="M0 0h73.004v22H0z"/></clipPath></defs><rect width="176" height="64" rx="6" fill="#343e48"/><g clip-path="url(#a)" fill-rule="evenodd" transform="translate(51 21)"><path d="M45.268 17.205C41.026 20.335 34.877 22 29.582 22a28.389 28.389 0 0 1-19.162-7.31c-.4-.358-.043-.848.434-.571a38.569 38.569 0 0 0 19.173 5.087 38.137 38.137 0 0 0 14.621-2.992c.717-.3 1.318.473.616.991" fill="#f8991d"/><path d="M47.033 15.19c-.543-.694-3.586-.329-4.954-.165-.414.05-.479-.312-.1-.574 2.428-1.705 6.406-1.213 6.869-.642s-.123 4.565-2.4 6.468c-.35.293-.683.136-.528-.25.512-1.279 1.659-4.142 1.115-4.837" fill="#f8991d"/><path d="M42.199 2.403V.746a.41.41 0 0 1 .42-.42h7.427a.413.413 0 0 1 .428.418v1.421a2.336 2.336 0 0 1-.559 1.043l-3.847 5.493a8.242 8.242 0 0 1 4.236.91.758.758 0 0 1 .394.647v1.77c0 .243-.267.526-.547.378a8.553 8.553 0 0 0-7.847.015c-.258.137-.529-.14-.529-.384v-1.683a2 2 0 0 1 .276-1.139l4.457-6.395h-3.881a.413.413 0 0 1-.429-.417M15.107 12.757h-2.26a.426.426 0 0 1-.4-.382V.775a.425.425 0 0 1 .434-.418h2.1a.424.424 0 0 1 .41.389v1.511h.051a3.1 3.1 0 0 1 5.905 0 3.337 3.337 0 0 1 5.737-.879c.717.976.57 2.391.57 3.636v7.318a.426.426 0 0 1-.436.417h-2.262a.424.424 0 0 1-.4-.416V6.189a14.823 14.823 0 0 0-.063-2.171 1.178 1.178 0 0 0-1.329-1 1.5 1.5 0 0 0-1.35.952 7.014 7.014 0 0 0-.211 2.221v6.147a.426.426 0 0 1-.436.417h-2.263a.424.424 0 0 1-.406-.416V6.191c0-1.293.211-3.2-1.392-3.2-1.626.001-1.564 1.855-1.564 3.198v6.147a.427.427 0 0 1-.436.417M56.867.112c3.354 0 5.167 2.88 5.167 6.54 0 3.538-2 6.345-5.167 6.345-3.29 0-5.083-2.88-5.083-6.467 0-3.612 1.814-6.418 5.083-6.418m.021 2.367c-1.666 0-1.771 2.269-1.771 3.684s-.021 4.441 1.751 4.441c1.751 0 1.835-2.44 1.835-3.928a10.743 10.743 0 0 0-.337-3.075 1.415 1.415 0 0 0-1.477-1.122M66.384 12.757h-2.251a.424.424 0 0 1-.405-.416V.741a.428.428 0 0 1 .43-.384h2.1a.43.43 0 0 1 .4.324v1.776h.042C67.333.87 68.218.114 69.779.114a2.962 2.962 0 0 1 2.637 1.367 7.378 7.378 0 0 1 .591 3.612v7.3a.428.428 0 0 1-.433.365h-2.265a.426.426 0 0 1-.4-.365v-6.3c0-1.269.148-3.124-1.413-3.124a1.479 1.479 0 0 0-1.308.927 5.159 5.159 0 0 0-.359 2.2v6.245a.433.433 0 0 1-.44.417M36.279 7.215a4.432 4.432 0 0 1-.424 2.4 1.835 1.835 0 0 1-1.564 1.027c-.867 0-1.374-.661-1.374-1.639 0-1.924 1.726-2.274 3.361-2.274Zm2.277 5.509a.467.467 0 0 1-.534.053 5.524 5.524 0 0 1-1.295-1.506 4.479 4.479 0 0 1-3.725 1.642 3.207 3.207 0 0 1-3.382-3.522 3.838 3.838 0 0 1 2.41-3.693 15.641 15.641 0 0 1 4.249-.783v-.293a2.891 2.891 0 0 0-.275-1.638 1.511 1.511 0 0 0-1.269-.587 1.721 1.721 0 0 0-1.816 1.357.478.478 0 0 1-.392.416l-2.19-.238a.4.4 0 0 1-.338-.473C30.503.8 32.902 0 35.052 0a5.123 5.123 0 0 1 3.4 1.125c1.1 1.027.993 2.4.993 3.889v3.52a3.085 3.085 0 0 0 .853 2.094.426.426 0 0 1-.008.6c-.462.387-1.281 1.1-1.732 1.5ZM6.658 7.215a4.435 4.435 0 0 1-.423 2.4 1.835 1.835 0 0 1-1.564 1.027C3.8 10.639 3.3 9.978 3.3 9c0-1.924 1.726-2.274 3.361-2.274Zm2.278 5.509a.467.467 0 0 1-.534.053 5.491 5.491 0 0 1-1.3-1.506 4.48 4.48 0 0 1-3.725 1.642A3.207 3.207 0 0 1 0 9.392 3.837 3.837 0 0 1 2.409 5.7a15.642 15.642 0 0 1 4.248-.783v-.295a2.891 2.891 0 0 0-.275-1.638A1.51 1.51 0 0 0 5.115 2.4 1.721 1.721 0 0 0 3.3 3.754a.478.478 0 0 1-.392.416L.717 3.932a.4.4 0 0 1-.338-.473C.882.8 3.281 0 5.432 0a5.125 5.125 0 0 1 3.4 1.125c1.1 1.027.993 2.4.993 3.889v3.52a3.085 3.085 0 0 0 .853 2.094.426.426 0 0 1-.007.6c-.461.387-1.282 1.1-1.733 1.5Z" fill="#fff"/></g></svg>