<svg xmlns="http://www.w3.org/2000/svg" width="16" height="16"><g data-name="グループ 87"><path data-name="パス 14" d="M0 .533A.533.533 0 0 1 .533 0h1.6a.533.533 0 0 1 .517.4l.432 1.729h12.385a.533.533 0 0 1 .523.638L14.923 8.1a.533.533 0 0 1-.5.428l-10.024.5.306 1.631h9.158a.533.533 0 1 1 0 1.067h-9.6a.533.533 0 0 1-.524-.435l-1.6-8.518-.422-1.706H.533A.533.533 0 0 1 0 .533ZM3.309 3.2l.9 4.778 9.754-.49.853-4.288Zm2.025 8.534a2.133 2.133 0 1 0 2.133 2.133 2.133 2.133 0 0 0-2.134-2.133Zm7.467 0a2.133 2.133 0 1 0 2.133 2.133 2.133 2.133 0 0 0-2.134-2.133ZM5.333 12.8a1.067 1.067 0 1 1-1.067 1.067A1.067 1.067 0 0 1 5.333 12.8Zm7.467 0a1.067 1.067 0 1 1-1.067 1.067A1.067 1.067 0 0 1 12.8 12.8Z" fill="#fdfdfd"/></g></svg>