<svg xmlns="http://www.w3.org/2000/svg" width="25.188" height="24"><path d="M25.188 10.22C25.188 4.585 19.539 0 12.594 0S0 4.585 0 10.22c0 5.053 4.48 9.28 10.533 10.08.41.089.968.27 1.11.621a2.589 2.589 0 0 1 .041 1.139s-.148.889-.18 1.078c-.055.318-.253 1.245 1.091.679s7.253-4.271 9.9-7.312a9.093 9.093 0 0 0 2.7-6.288M8.151 13.234a.24.24 0 0 1-.24.24H4.372a.24.24 0 0 1-.24-.24V7.738a.24.24 0 0 1 .24-.24h.893a.241.241 0 0 1 .24.24V12.1h2.4a.241.241 0 0 1 .24.24Zm2.13 0a.24.24 0 0 1-.24.24h-.894a.24.24 0 0 1-.24-.24v-5.5a.24.24 0 0 1 .24-.24h.893a.24.24 0 0 1 .24.24Zm6.08 0a.24.24 0 0 1-.24.24h-.888a.246.246 0 0 1-.063-.008l-.017-.005h-.008l-.012-.005-.012-.006h-.007l-.015-.009a.239.239 0 0 1-.062-.061l-2.518-3.4v3.264a.24.24 0 0 1-.24.24h-.899a.24.24 0 0 1-.24-.24v-5.5a.24.24 0 0 1 .24-.24H12.357l.014.006h.008l.013.007h.007l.013.009h.007l.013.011.014.015a.244.244 0 0 1 .019.025L14.987 11V7.738a.24.24 0 0 1 .24-.24h.893a.24.24 0 0 1 .24.24Zm4.878-4.6a.24.24 0 0 1-.24.24h-2.4V9.8H21a.241.241 0 0 1 .24.241v.893a.24.24 0 0 1-.24.24h-2.4v.926H21a.241.241 0 0 1 .24.24v.893a.24.24 0 0 1-.24.24h-3.54a.24.24 0 0 1-.24-.24V7.738a.24.24 0 0 1 .24-.24H21a.241.241 0 0 1 .24.24Z"/></svg>