<svg xmlns="http://www.w3.org/2000/svg" width="144" height="42.854"><path d="M115.919 35.914H28.801l6.939 6.94ZM36.871 7.839v1.05a8.8 8.8 0 0 0-5.055-1.63c-6.1 0-10.74 5.566-10.74 12.4s4.637 12.4 10.74 12.4a8.789 8.789 0 0 0 5.055-1.62v1.048h5.364V7.839Zm-5.055 18.533c-3.01 0-5.213-2.964-5.213-6.707s2.2-6.7 5.213-6.7 5.137 2.964 5.137 6.7-2.124 6.707-5.137 6.707M79.85 7.844v13.887a4.413 4.413 0 1 1-8.792 0V7.844h-5.365v13.887c0 5.7 3.9 10.334 9.6 10.334a8.233 8.233 0 0 0 4.56-1.459v.879h5.364V7.844ZM129.843 31.485V17.598a4.413 4.413 0 1 1 8.792 0v13.887H144V17.598c0-5.7-3.9-10.334-9.6-10.334a8.234 8.234 0 0 0-4.561 1.459v-.879h-5.364v23.64Z"/><path d="M5.612 31.483v-9.158h3.969l6.871 9.158h7.024l-8.3-11.051a10.179 10.179 0 0 0-5.9-18.48H0v29.53Zm0-23.924h3.662a4.577 4.577 0 1 1 0 9.154H5.612ZM99.676 25.89a3.188 3.188 0 0 1-1.794.582 2.645 2.645 0 0 1-2.529-2.9V13.454h4.588V7.845h-4.588V1.952h-5.366v5.893h-2.838v5.611h2.838v10.2a8.073 8.073 0 0 0 7.977 8.432 11.056 11.056 0 0 0 5.248-1.488ZM55.575 18.925l9.2-11.081h-7.518l-6.437 8.235V0h-5.525v31.484h5.525v-9.71l7.913 9.71h7.517Z"/><path d="M112.069 7.241c-6.21 0-10.664 5.456-10.664 12.42 0 7.321 5.592 12.422 11.2 12.422 2.829 0 6.456-.971 9.5-5.292l-4.739-2.736c-3.665 5.4-9.773 2.661-10.478-2.742h15.455c1.322-8.491-4.168-14.075-10.273-14.075m4.684 9.368h-9.66c1.129-5.537 8.618-5.855 9.663 0"/></svg>