<svg xmlns="http://www.w3.org/2000/svg" width="176" height="64"><rect width="176" height="64" rx="6" fill="#343e48"/><g fill="#fff"><path d="M110.548 39.437H65.822L69.384 43ZM69.965 25.027v.539a4.519 4.519 0 0 0-2.6-.837c-3.133 0-5.514 2.857-5.514 6.366s2.38 6.366 5.514 6.366a4.512 4.512 0 0 0 2.6-.836v.538h2.754V25.027Zm-2.6 9.512c-1.545 0-2.676-1.522-2.676-3.443s1.131-3.442 2.676-3.442 2.637 1.522 2.637 3.442-1.09 3.443-2.637 3.443M92.029 25.027v7.129a2.266 2.266 0 1 1-4.514 0v-7.129h-2.754v7.129a5 5 0 0 0 4.924 5.305 4.227 4.227 0 0 0 2.341-.749v.451h2.759V25.027ZM117.694 37.163v-7.129a2.266 2.266 0 1 1 4.514 0v7.129h2.754v-7.129a5 5 0 0 0-4.926-5.305 4.227 4.227 0 0 0-2.342.749v-.451h-2.754v12.136Z"/><path d="M53.917 37.163v-4.7h2.038l3.527 4.7h3.606l-4.259-5.673a5.226 5.226 0 0 0-3.028-9.487h-4.765v15.16Zm0-12.282h1.88a2.35 2.35 0 1 1 0 4.7h-1.88ZM102.207 34.295a1.637 1.637 0 0 1-.921.3 1.358 1.358 0 0 1-1.3-1.489v-5.199h2.355v-2.881h-2.356v-3.024H97.23v3.024h-1.457v2.881h1.457v5.236a4.145 4.145 0 0 0 4.1 4.329 5.676 5.676 0 0 0 2.694-.764ZM79.567 30.716l4.725-5.689h-3.861l-3.3 4.228V21H74.29v16.163h2.836v-4.985l4.062 4.985h3.859Z"/><path d="M108.57 24.716c-3.188 0-5.475 2.8-5.475 6.376a6.13 6.13 0 0 0 5.749 6.377 5.748 5.748 0 0 0 4.878-2.717l-2.438-1.402c-1.881 2.774-5.017 1.366-5.379-1.407h7.934c.679-4.359-2.14-7.226-5.274-7.226m2.4 4.809h-4.961a2.5 2.5 0 0 1 4.961 0"/></g></svg>