<svg data-name="グループ 718" xmlns="http://www.w3.org/2000/svg" width="328" height="215"><path data-name="パス 150" d="M328 0v215H0V0Z" fill="#f6f7f7"/><g data-name="グループ 488"><path data-name="パス 1" d="M186.711 100.463v6.036h-6.084v1.16h6.084v6.085h1.205v-6.084H194v-1.16h-6.084v-6.037Z"/><path data-name="パス 2" d="M171.315 122.136c-.2-.044-.312.143-.394.363-.554 1.5-1.242 2.036-2.563 1.787a22.964 22.964 0 0 1-5.873-2.469c-1.132-.6-2.434-1.485-3.72-2.344 4.322-3.051 7.608-8.492 7.608-16 0-9.081-6.832-16.463-16.186-16.463-7.659 0-16.187 6.833-16.187 18.8a16.069 16.069 0 0 0 12.055 15.986 5.163 5.163 0 0 0 .069.932 4.686 4.686 0 0 0 1.121 2.336 5.123 5.123 0 0 0 2.813 1.473 1.229 1.229 0 0 0 1.285-1.827c-.746-1.523-2.33-.5-3.047-1.528a4.944 4.944 0 0 1-.579-1.063 17.13 17.13 0 0 0 2.47.2 14.475 14.475 0 0 0 6.008-1.366 29.541 29.541 0 0 1 2.905 2.486c1.944 1.931 3.24 3.945 5.884 4.44 2.911.545 5.333-.486 6.534-5.229.042-.227-.017-.474-.2-.513m-30.441-17.519c0-4.814.964-10.711 4.173-14.012a6.267 6.267 0 0 1 5.137-2.246c2.109 0 3.165.5 4.952 2.018 3.393 2.979 4.356 8.69 4.356 14.285 0 4.336-.8 9.729-3.3 13.175a10.108 10.108 0 0 0-1.927-.92c-3.879-1.22-6.309.193-7.44 2.228a7.933 7.933 0 0 0-.43.911 15.292 15.292 0 0 1-1.166-.907c-3.39-2.982-4.355-8.94-4.355-14.532m9.309 16.551a6.388 6.388 0 0 1-2.628-.457 3.2 3.2 0 0 1 .583-1.308 3.263 3.263 0 0 1 3.689-.96 11.989 11.989 0 0 1 2.615 1.3 6.055 6.055 0 0 1-4.259 1.424"/></g></svg>